<svg
    xmlns="http://www.w3.org/2000/svg"
    version="1.1"
    width="150"
    height="150"
    viewBox="0 0 500 500"
>
    <rect
    width="500"
    height="500"
    rx="250"
    fill="#ece2e1"
/>
    
    <path fill="#d7b89c" d="M440.7 280.2c0 6.7-.4 13.1-1.2 19.2-1.1 7.9-2.9 15.2-5.3 21.9a86.3 86.3 0 01-20.7 32.6C393 374.3 362 385.2 325 390.6c-23 3.3-48.3 4.5-74.9 4.5a529 529 0 01-75-4.6c-68-9.8-115.7-38.4-115.7-110.3 0-96.3 85.4-174.3 190.7-174.3 95.7 0 175 64.4 188.6 148.3a161 161 0 012.1 26z"/>
  
    <path fill="#b99a7e" d="M71.4 144.8c-7.5-15.8 70.4-53.2 78-37.5 8.7 23 7.8 43-1.6 60.6a32 32 0 01-33.8 16.5c-21.4-3.7-35.8-16.6-42.6-39.6zM423.4 144.8c7.6-15.8-70.3-53.2-78-37.5-8.7 23-7.7 43 1.7 60.6a32 32 0 0033.8 16.5c21.4-3.7 35.8-16.6 42.5-39.6z"/>
  
    <path fill="\#fef6f4" d="M332 100.7c-10.2-27.5-29.9-29.9-53.6-21.5C273.2 72.5 266 67 250 66.3c-15.9.6-23.2 6.2-28.4 13-23.8-8.5-43.4-6.1-53.5 21.4-39 19.8-5.9 84.7 33 64.8 10.9 12 24.4 19.1 48.9 5.7 24.5 13.4 38 6.3 48.9-5.7 38.9 19.9 72-45 33-64.8z"/>
  
    <path fill="\#15212a" d="M288.6 308.7a2.8 2.8 0 00-3.5-1.4l-18.5 7c0-.2-.1-.3-.3-.3-6.6-3.8-11.5-11.6-14.8-23.8 9.6 0 17 .7 17-9a18.5 18.5 0 10-37 0c0 9.7 7.5 9 17 9v.3c3.3 12.3 8 20.5 14.7 25-12 4.5-21.4 8.3-19 8.5 0 0 30.7-5.2 39.8-8.7 5.4-2.1 5.4-4.8 4.6-6.6z"/>
  
    <circle cx="169" cy="250" r="20.4" fill="\#15212a"/>
    <circle cx="175.4" cy="255.8" r="9.6" fill="\#fff"/>
    <circle cx="159.4" cy="241" r="4.2" fill="\#fff"/>
    <circle cx="331" cy="250" r="20.4" fill="\#15212a"/>
    <circle cx="324.6" cy="255.8" r="9.6" fill="\#fff"/>
    <circle cx="340.6" cy="241" r="4.2" fill="\#fff"/>
  
    <ellipse fill="\#15212a" cx="348" cy="190.6" rx="8.3" ry="19.4" transform="rotate(-57.5 348 190.6)"/>
    <ellipse fill="\#15212a" cx="152" cy="205.1" rx="19.4" ry="8.3" transform="rotate(-32.5 152 205)"/>
    
    <path
    d="M250,0a250,250 0 1,1 0,500"
    fill="\#15212a"
    fill-opacity="0.08"
/>
</svg>
