<svg
    xmlns="http://www.w3.org/2000/svg"
    version="1.1"
    width="200"
    height="200"
    viewBox="0 0 500 500"
>
    <rect
    width="500"
    height="500"
    rx="250"
    fill="#9c27b0"
/>
    
    <path fill="#ffd700" d="M440.7 280.2c0 6.7-.4 13.1-1.2 19.2-1.1 7.9-2.9 15.2-5.3 21.9a86.3 86.3 0 01-20.7 32.6C393 374.3 362 385.2 325 390.6c-23 3.3-48.3 4.5-74.9 4.5a529 529 0 01-75-4.6c-68-9.8-115.7-38.4-115.7-110.3 0-96.3 85.4-174.3 190.7-174.3 95.7 0 175 64.4 188.6 148.3a161 161 0 012.1 26z"/>
  
    <path fill="\#813d14" d="M399.9 72.3c-2.1 5.7-4.5 11.3-7.8 16.8l-.6 1-.6 1-1.4 2.1-1.5 2-1.6 2-1.8 1.8c-.6.6-1.1 1.2-1.8 1.7l-2 1.7-1 .8-1 .7c-5.7 4-12.1 6.5-18.4 8-5 1.3-10 2-15 2.6-1 4.3-2.4 8.5-4.1 12.6-5-2.4-10-4.7-15.1-6.7 2-3.8 3.6-7.9 4.8-12a86.7 86.7 0 003-20.4c.2-7-.2-14-1.1-21.2-1-7.1-2.3-14.2-4-21.3v-.1a5 5 0 019.7-2.6c2.3 7.2 4.3 14.5 5.9 22a147.8 147.8 0 013 33.3c3.4-.1 6.7-.4 10-.8 5.1-.8 9.9-2.2 14-4.5l.8-.5.8-.5 1.5-1 1.4-1.1 1.4-1.2 1.3-1.4 1.3-1.3 1.2-1.5.6-.8.6-.8c3.1-4.2 5.8-9.2 8.3-14.3a5 5 0 019.2 4zM100.3 72.3c2 5.7 4.4 11.3 7.7 16.8l.6 1 .7 1 1.4 2.1 1.5 2 1.5 2 1.8 1.8 1.8 1.7 2 1.7 1 .8 1 .7c5.7 4 12.2 6.5 18.4 8 5 1.3 10.1 2 15 2.6 1 4.3 2.4 8.5 4.2 12.6 4.9-2.4 10-4.7 15-6.7-2-3.8-3.5-7.9-4.7-12a86.7 86.7 0 01-3-20.4c-.2-7 .2-14 1-21.2 1-7.1 2.4-14.2 4-21.3v-.1a5 5 0 00-9.6-2.6c-2.3 7.2-4.4 14.5-6 22a147.8 147.8 0 00-3 33.3c-3.4-.1-6.7-.4-9.9-.8-5.2-.8-10-2.2-14.1-4.5l-.8-.5-.7-.5-1.5-1-1.4-1.1-1.4-1.2-1.3-1.4c-.5-.4-1-.8-1.3-1.3l-1.3-1.5-.6-.8-.6-.8a93.6 93.6 0 01-8.2-14.3 5 5 0 00-9.3 4z"/>
    <path fill="#ffd700" d="M408 148.5c-5.9 3.7-13.4 6.7-22.6 9-10.8-10-23-18.8-36.1-26.1a57 57 0 0138.7-18.1c10.8-.9 22.6.5 35.4 3.9 1.6 13.5-3.6 23.8-15.4 31.3zM92 148.5c6 3.7 13.5 6.7 22.6 9 10.8-10 23-18.8 36.2-26.1a57 57 0 00-38.8-18.1c-10.8-.9-22.6.5-35.4 3.9C75 130.7 80.3 141 92 148.5z"/>
    <path fill="\#15212a" d="M408 148.5c19.7-24.5 3.3-31.5-20-35.2 10.8-.9 22.6.5 35.4 3.9 1.6 13.5-3.6 23.8-15.4 31.3zM92 148.5c-19.7-24.5-3.2-31.5 20-35.2-10.8-.9-22.6.5-35.4 3.9C75 130.7 80.3 141 92 148.5z"/>
  
    <path fill="\#eabf9f" d="M202.2 99.6c34-8 67.5-7.6 100.4.9 9.3 2.3 14.9 8 13.7 14-7.5 39.7-60.1 79.2-70 71.6-10.8-8.2 2.3-31.4-9.5-33.1-10.4-1.5-25.9 15.9-37.8 11.8-2.7-.9-4.3-2.7-4.2-4.6a161 161 0 00-5.6-46.6c-1.8-6 3.6-11.8 13-14z"/>
  
    <path fill="\#15212a" d="M277.6 291.26c0 9.56-12.36 21.7-27.6 21.7s-27.6-12.14-27.6-21.7 12.36-14.83 27.6-14.83 27.6 5.28 27.6 14.83zM219.24 307.93c-4.98-1.74-10.12-3-15.35-3.67a69.16 69.16 0 0 0-15.82-.22c-10.56 1.04-20.83 4.51-30.4 9.27l-.35-.68c9.45-5.11 19.73-9.01 30.53-10.46 5.39-.73 10.87-.85 16.3-.34 5.44.51 10.81 1.63 16.03 3.25l-.94 2.85zM219.98 312.52c-9.35 1.47-18.46 4.57-26.91 8.99-8.47 4.42-16.28 10.1-23.44 16.51l-.36-.39c6.9-6.73 14.53-12.8 22.95-17.67 8.4-4.87 17.62-8.46 27.23-10.4l.53 2.96zM222.41 318.16a45.94 45.94 0 0 0-10.58 6.51c-3.22 2.65-6.07 5.75-8.52 9.17-4.91 6.84-8.2 14.81-10.48 23.01l-.64-.16c1.92-8.34 4.86-16.58 9.61-23.88 2.37-3.64 5.19-7.02 8.45-9.96 3.25-2.94 6.93-5.43 10.87-7.4l1.29 2.71zM232.69 317.9c-6.32 5.69-11.5 12.7-14.8 20.62-3.35 7.91-4.8 16.59-4.95 25.25h-.47c-.27-8.71.76-17.58 3.8-25.89 1.51-4.15 3.5-8.14 5.93-11.86 2.42-3.72 5.27-7.17 8.42-10.31l2.07 2.19z"/>
    <path fill="\#15212a" d="M280.76 307.93c4.98-1.74 10.12-3 15.35-3.67a69.16 69.16 0 0 1 15.82-.22c10.56 1.04 20.83 4.51 30.4 9.27l.35-.68c-9.45-5.11-19.73-9.01-30.53-10.46-5.39-.73-10.87-.85-16.3-.34-5.44.51-10.81 1.63-16.03 3.25l.94 2.85zM280.02 312.52c9.35 1.47 18.46 4.57 26.91 8.99 8.47 4.42 16.28 10.1 23.44 16.51l.36-.39c-6.9-6.73-14.53-12.8-22.95-17.67-8.4-4.87-17.62-8.46-27.23-10.4l-.53 2.96zM277.59 318.16a45.94 45.94 0 0 1 10.58 6.51c3.22 2.65 6.07 5.75 8.52 9.17 4.91 6.84 8.2 14.81 10.48 23.01l.64-.16c-1.92-8.34-4.86-16.58-9.61-23.88-2.37-3.64-5.19-7.02-8.45-9.96a48.654 48.654 0 0 0-10.87-7.4l-1.29 2.71zM267.31 317.9c6.32 5.69 11.5 12.7 14.8 20.62 3.35 7.91 4.8 16.59 4.95 25.25h.47c.27-8.71-.76-17.58-3.8-25.89-1.51-4.15-3.5-8.14-5.93-11.86-2.42-3.72-5.27-7.17-8.42-10.31l-2.07 2.19z"/>
  
    <circle cx="169" cy="254.5" r="17.2" fill="\#15212a"/>
    <circle cx="175.3" cy="247.8" r="5.9" fill="\#fff"/>
    <circle cx="331" cy="254.5" r="17.2" fill="\#15212a"/>
    <circle cx="324.7" cy="247.8" r="5.9" fill="\#fff"/>
  
    <path fill="\#15212a" d="M333 196.7h-.4l-27.6-2.1a5 5 0 01.8-10l27.5 2a5 5 0 01-.3 10zM166.6 196.7h.4l27.5-2.1a5 5 0 00-.7-10l-27.6 2a5 5 0 00.4 10z"/>
    
    <path
    d="M250,0a250,250 0 1,1 0,500"
    fill="\#15212a"
    fill-opacity="0.08"
/>
</svg>